<?xml version="1.0" standalone="no"?><!DOCTYPE svg PUBLIC "-//W3C//DTD SVG 1.1//EN" "http://www.w3.org/Graphics/SVG/1.1/DTD/svg11.dtd"><svg t="1612519546841" class="icon" viewBox="0 0 1024 1024" version="1.1" xmlns="http://www.w3.org/2000/svg" p-id="31844" xmlns:xlink="http://www.w3.org/1999/xlink" width="48" height="48"><defs><style type="text/css"></style></defs><path d="M511.39362479 120.51729427c213.73591165 0 387.85198329 174.11607068 387.8519833 387.85198327 0 213.73716454-174.11607068 387.3333069-387.85198332 387.33330691-213.73716454 0-387.85198329-174.11481778-387.8519823-387.85198331 0-213.73591165 174.11481778-387.3333069 387.8519823-387.33330687m2e-8-59.94968978C264.28954816 60.56760449 64.10937523 260.74777743 64.10937523 507.85060116c0 247.09906498 200.18017296 447.28424957 447.28424956 447.28425053 247.09781207 0 447.28299763-200.18518459 447.28299763-447.28425053 0-247.10282371-200.18518459-447.28299763-447.28299763-447.28299667z m0 0" fill="" p-id="31845"></path><path d="M488.75353697 522.54141376c-1.91809967-12.49458254-13.6973097-21.03895777-26.08414784-19.11584645l-44.65751456 6.87559096v-96.36601671h45.74372791c12.62613028 0 22.87436929-10.24197446 22.87436928-22.86935862 0-12.62613028-10.248239-22.86810473-22.87436928-22.86810474H418.01187457v-76.232864c0-12.62613028-10.23320411-22.86935765-22.86810473-22.86935765-12.63615355 0-22.87436929 10.24322738-22.8743693 22.86935765v76.232864h-30.49414775v-45.74372791c0-12.62613028-10.23320411-22.86935765-22.86935764-22.86935765s-22.87436929 10.24322738-22.87436928 22.86935765v54.33195204c0 17.45207382-10.4724972 28.15509375-17.98453125 28.15509375-12.63615355 0-22.87436929 10.2469861-22.8743693 22.8743693 0 12.6211196 10.23821572 22.86810473 22.8743693 22.86810571 23.41684903 0 43.69783825-14.87748546 54.77169902-36.74832953h39.4507069v103.39445388l-94.39404579 14.529196c-12.48455927 1.92436325-21.04898007 13.59582985-19.12586876 26.0904124 1.73267877 11.29937187 11.47727533 19.38395451 22.57118169 19.38395454 1.1551195 0 2.33404235-0.09271046 3.50920743-0.269361l87.44453706-13.45801659v155.26457361c0 12.62613028 10.23320411 22.86935765 22.86935767 22.86935764 12.63490065 0 22.86810473-10.24322738 22.86810473-22.86935766V556.57859556l51.62706885-7.95303396c12.47829568-1.91809967 21.03770485-13.59457694 19.11459353-26.08414784z" fill="" p-id="31846"></path><path d="M722.9621223 413.93514156h-91.4824432v-45.73746336h76.23286303c12.63114191 0 22.87436929-10.24322738 22.87437026-22.86935765 0-12.62613028-10.248239-22.87436929-22.87437026-22.87437026h-76.23286303v-60.98328383c0-12.62613028-10.2469861-22.86935765-22.8743693-22.86935766-12.62613028 0-22.86935765 10.23821572-22.86935764 22.86935766v60.98328383h-60.98704354c-12.63114191 0-22.87436929 10.248239-22.87436929 22.87437026s10.24322738 22.86935765 22.87436929 22.86935765h60.98704354v45.73746336h-76.23662275c-12.62613028 0-22.86935765 10.248239-22.86935763 22.86935765 0 12.62613028 10.24322738 22.87436929 22.86935763 22.8743693h213.46279289c12.62613028 0 22.86935765-10.248239 22.86935766-22.8743693 0-12.6211196-10.24322738-22.86935765-22.86935766-22.86935765zM722.9621223 520.66215233h-45.73871628v-30.4891361c0-12.62613028-10.248239-22.87436929-22.87436927-22.87436928s-22.86935765 10.248239-22.86935765 22.87436928v30.4891361h-121.98034969c-12.62613028 0-22.87436929 10.248239-22.87436929 22.8743693s10.248239 22.86935765 22.87436929 22.86935765h121.97533805v108.88440355c0 20.56413028 0 29.07969053-42.28839171 29.07969053-12.62613028 0-22.86935765 10.2469861-22.86935862 22.86935764 0 12.63114191 10.24322738 22.87311639 22.86935862 22.87311735 26.34473847 0 88.0321196 0 88.03211962-74.82216552v-108.88440355h45.74372693c12.62613028 0 22.86935765-10.24322738 22.86935766-22.86935765 0-12.62613028-10.24322738-22.87436929-22.86935766-22.8743693z" fill="" p-id="31847"></path><path d="M532.36868707 589.2752379c-12.62613028 0-22.86935765 10.2469861-22.86935766 22.86810474v45.74372791c0 12.62613028 10.24322738 22.86935765 22.86935766 22.86935765 12.62613028 0 22.87436929-10.24322738 22.87436929-22.86935765V612.14334264c0-12.6211196-10.248239-22.86810473-22.87436929-22.86810474z" fill="" p-id="31848"></path></svg>