<?xml version="1.0" standalone="no"?><!DOCTYPE svg PUBLIC "-//W3C//DTD SVG 1.1//EN" "http://www.w3.org/Graphics/SVG/1.1/DTD/svg11.dtd"><svg t="1612518691917" class="icon" viewBox="0 0 1024 1024" version="1.1" xmlns="http://www.w3.org/2000/svg" p-id="9867" xmlns:xlink="http://www.w3.org/1999/xlink" width="48" height="48"><defs><style type="text/css"></style></defs><path d="M512 138.24c209.92 0 380.928 171.008 380.928 380.928S721.92 899.584 512 899.584 131.072 728.576 131.072 518.656 302.08 138.24 512 138.24m0-58.88c-242.688 0-439.296 196.608-439.296 439.296S269.312 957.952 512 957.952s439.296-196.608 439.296-439.296S754.688 79.36 512 79.36z" p-id="9868"></path><path d="M512 753.152c-124.928 0-233.472-88.576-258.56-210.432-3.072-15.872 7.168-31.232 23.04-34.816 15.872-3.584 31.232 7.168 34.816 23.04 19.456 94.72 103.936 163.84 200.704 163.84 99.328 0 183.808-70.656 201.728-167.936 3.072-15.872 17.92-26.112 34.304-23.552 15.872 3.072 26.624 18.432 23.552 34.304C748.544 662.016 639.488 753.152 512 753.152z" p-id="9869"></path><path d="M512 835.072c-16.384 0-29.184-13.312-29.184-29.184v-468.48c0-16.384 13.312-29.184 29.184-29.184 16.384 0 29.184 13.312 29.184 29.184v468.48c0 15.872-12.8 29.184-29.184 29.184z" p-id="9870"></path><path d="M627.2 463.872H396.8c-16.384 0-29.184-13.312-29.184-29.184s13.312-29.184 29.184-29.184h230.4c16.384 0 29.184 13.312 29.184 29.184s-13.312 29.184-29.184 29.184zM541.184 346.624h-58.368c-16.384 0-29.184-13.312-29.184-29.184s13.312-29.184 29.184-29.184h58.368c16.384 0 29.184 13.312 29.184 29.184s-12.8 29.184-29.184 29.184zM244.736 647.68c-4.096 0-8.192-1.024-11.776-2.56-14.848-6.656-21.504-24.064-14.848-38.912l38.912-86.528c6.656-14.848 24.064-21.504 38.912-14.848l86.528 38.912c14.848 6.656 21.504 24.064 14.848 38.912-6.656 14.848-24.064 21.504-38.912 14.848l-59.904-26.624-27.136 59.392c-4.608 10.752-15.36 17.408-26.624 17.408zM781.824 647.68c-11.264 0-22.016-6.656-26.624-17.408l-26.624-59.904-59.904 26.624c-14.848 6.656-32.256 0-38.912-14.848-6.656-14.848 0-32.256 14.848-38.912l86.528-38.912c14.848-6.656 32.256 0 38.912 14.848l38.912 86.528c6.656 14.848 0 32.256-14.848 38.912-4.608 2.048-8.704 3.072-12.288 3.072z" p-id="9871"></path></svg>